<svg id="Capa_1" enable-background="new 0 0 512 512" height="512" viewBox="0 0 512 512" width="512" xmlns="http://www.w3.org/2000/svg"><g><g><path d="m300.224 402.254h-44.224-44.224l-30 90h74.224 74.224z" fill="#cce6ff"/><path d="m300.224 402.254h-44.224v90h74.224z" fill="#b3ccff"/><path d="m256 61h-256v361h256 256v-361z" fill="#333e73"/><path d="m256 61h256v361h-256z" fill="#1f2859"/><path d="m256 91h-226v301h226 226v-301z" fill="#6cf"/><path d="m256 91h226v301h-226z" fill="#4da6ff"/><path d="m256 482h-135v30h135 135v-30z" fill="#e6f7ff"/><path d="m256 482h135v30h-135z" fill="#cce6ff"/></g><path d="m121 0v362h270v-362z" fill="#e6f7ff"/><g fill="#cce6ff"><path d="m256 0h135v362h-135z"/><path d="m181 61v120h150v-120z"/><path d="m181 211h150v30h-150z"/><path d="m181 271h150v30h-150z"/></g><path d="m256 61h75v120h-75z" fill="#b3ccff"/><path d="m256 211h75v30h-75z" fill="#b3ccff"/><path d="m256 271h75v30h-75z" fill="#b3ccff"/></g></svg>